<?xml version="1.0" standalone="no"?><!DOCTYPE svg PUBLIC "-//W3C//DTD SVG 1.1//EN" "http://www.w3.org/Graphics/SVG/1.1/DTD/svg11.dtd"><svg t="1654092282320" class="icon" viewBox="0 0 1024 1024" version="1.1" xmlns="http://www.w3.org/2000/svg" p-id="2255" data-darkreader-inline-fill="" xmlns:xlink="http://www.w3.org/1999/xlink" width="200" height="200"><defs><style type="text/css"></style></defs><path d="M478.462882 476.972344L304.069869 973.321689h496.349345L626.026201 475.481805z" fill="#030000" p-id="2256" data-darkreader-inline-fill="" style="--darkreader-inline-fill:#020000;"></path><path d="M682.666667 535.103348c55.149927-40.244541 90.922853-105.828239 90.922853-178.864629C773.58952 234.014556 673.723435 134.148472 551.499272 134.148472c-123.714702 0-223.580786 99.866084-223.580786 222.090247 0 74.526929 37.263464 140.110626 93.90393 181.845706l19.377002-55.149927c-35.772926-31.30131-58.131004-76.017467-58.131005-126.695779 0-92.413392 74.526929-166.94032 166.940321-166.94032 92.413392 0 166.94032 74.526929 166.94032 166.94032 0 49.187773-20.86754 92.413392-55.149927 123.714702l20.86754 55.149927z" fill="#030000" p-id="2257" data-darkreader-inline-fill="" style="--darkreader-inline-fill:#020000;"></path><path d="M551.499272 356.238719m-86.451237 0a86.451237 86.451237 0 1 0 172.902474 0 86.451237 86.451237 0 1 0-172.902474 0Z" fill="#030000" p-id="2258" data-darkreader-inline-fill="" style="--darkreader-inline-fill:#f3f0ed;"></path><path d="M386.049491 640.931587l19.377001-53.659389c-77.508006-49.187773-128.186317-134.148472-128.186317-231.033479 0-150.544396 122.224163-274.259098 274.259097-274.259097 150.544396 0 274.259098 122.224163 274.259098 274.259097 0 95.394469-49.187773 180.355167-125.20524 229.54294l17.886462 53.659389c96.885007-58.131004 160.978166-163.959243 160.978166-283.202329 0-181.845706-147.563319-329.409025-327.918486-329.409025-181.845706 0-329.409025 147.563319-329.409025 329.409025 0 120.733624 65.583697 226.561863 163.959244 284.692868z" fill="#030000" p-id="2259" data-darkreader-inline-fill="" style="--darkreader-inline-fill:#020000;"></path></svg>